<svg version="1.1" id="Layer_1" xmlns:x="ns_extend;" xmlns:i="ns_ai;" xmlns:graph="ns_graphs;" xmlns="http://www.w3.org/2000/svg" xmlns:xlink="http://www.w3.org/1999/xlink" x="0px" y="0px" viewBox="0 0 82.2 82.2" style="enable-background:new 0 0 82.2 82.2;" xml:space="preserve">
 <style type="text/css">
  .st0{fill:#FF661C;}
 </style>
 <metadata>
  <sfw xmlns="ns_sfw;">
   <slices>
   </slices>
   <sliceSourceBounds bottomLeftOrigin="true" height="82.2" width="82.2" x="0" y="-0.1">
   </sliceSourceBounds>
  </sfw>
 </metadata>
 <g>
  <g>
   <path class="st0" d="M51.1,74.7c1.5-0.5,3-1,4.5-1.7l2.5,5.4c1.3-0.6,2.6-1.3,3.9-2l-3.1-5.2c-0.2,0.1-1.8,1-1.9,1.1l-3-5.2
			c-1.5,0.7-3,1.4-4.6,1.8L51.1,74.7z">
   </path>
  </g>
  <g>
   <path class="st0" d="M76.1,43.9c0-0.5,0-1.1,0.1-1.6l6,0.2c0-0.5,0-1,0-1.5s0-1,0-1.5l-6,0.2c0-0.5,0-1.1-0.1-1.6l-6,0.5
			c-0.1-1.6-0.4-3.1-0.8-4.7l5.8-1.4c-0.4-1.7-1-3.4-1.7-5l5.5-2.3c-0.6-1.3-1.2-2.7-1.9-4l-5.3,2.9c0.4,0.6,0.7,1.3,1,2l-5.4,2.5
			c-0.9-2-1.7-3.5-3.1-5.2l4.7-3.7c0.4,0.5,0.4,0.7,0.8,1.2l5-3.5c-1.1-1.6-2.4-3.1-3.7-4.6l-4.4,4.1c0.4,0.5,0.4,0.5,0.8,1L62.9,22
			c-1-1.2-1.7-1.9-2.9-2.9l3.9-4.5c0.3,0.3,0.6,0.6,1,0.9l4.1-4.4c-1.8-1.7-3.7-3.2-5.8-4.5l-3.2,5c-1.8-1.2-3-2-5-2.8l-2.3,5.6
			c-0.3-0.1-1.3-0.5-1.6-0.6l2.1-5.6c-0.8-0.3-1.6-0.5-2.4-0.8l1.7-5.7c-1.4-0.4-2.9-0.7-4.3-1l-1,5.9c-0.6-0.1-1.1-0.2-1.7-0.3
			l-0.8,5.9c-0.3,0-1.5-0.1-1.8-0.1l0.6-6c-0.7,0-0.6-0.1-1.3-0.1l0.2-6c-0.4,0-0.9,0-1.3,0C18.4,0,0,18.4,0,41.1
			c0,22.6,18.4,41.1,41.1,41.1c0.4,0,0.6,0,1,0l-0.2-6c0.6,0,1.4,0,2.1-0.1l0.7,6c0.3,0,3-0.4,3.2-0.4l-1.3-5.9
			c-0.2,0-1.6,0.2-2.3,0.3l-0.6-6c-0.9,0.1-1.8,0.1-2.7,0.1v-6c-12.7-0.1-23-10.4-23-23.1S28.3,18,41.1,18c3.6,0,7.1,0.8,10.3,2.4
			l2.7-5.4c0.4,0.2,1.7,0.9,2.1,1.2l-2.8,5.3c3.9,2.5,7,6.1,8.9,10.3l5.5-2.4c0.2,0.4,0.8,2.1,0.9,2.5l-5.5,2.2
			c0.7,2.2,1.1,4.6,1.1,6.9c0,4.3-1.2,8.6-3.5,12.2l5.1,3.2c-0.7,1.1-1.5,2.2-2.4,3.3l4.6,3.8c-0.4,0.5-0.8,1-1.2,1.4l4.4,4.1
			c1.7-1.8,3.2-3.7,4.5-5.8l-5-3.3c1-1.5,1.9-3.2,2.6-4.9l-5.5-2.6c0.1-0.3,0.7-1.5,0.8-1.8l5.7,2c0.2-0.6,0.4-1.2,0.6-1.8l5.7,1.7
			c0.4-1.4,0.8-2.8,1-4.3l-5.9-1.1c0.1-0.8,0.3-0.8,0.3-1.5l-6-0.7c0-0.3,0.1-1.4,0.1-1.7L76.1,43.9z">
   </path>
  </g>
  <g>
   <path class="st0" d="M63.9,67.6L60,63.1c-1.2,1-1.9,1.6-3.2,2.4l-3.2-5.1c-0.3,0.2-2.5,1.5-2.5,1.5l2.9,5.3c0,0,2.1-1.1,2.2-1.2
			l3.1,5.1c1.3-0.8,2.5-1.7,3.6-2.6l3.8,4.7c0.8-0.6,1.5-1.3,2.2-1.9l-4.1-4.4C64.6,67,64.2,67.3,63.9,67.6">
   </path>
  </g>
 </g>
</svg>